<svg
xmlns="http://www.w3.org/2000/svg"
version="1.0"
width="100" height="100"
id="7-simplex.svg">
<g style="stroke:#000000;stroke-width:16.0;stroke-opacity:0.90;" transform="scale(0.0625)">
<line x1="1560.000" y1="800.000" x2="1273.852" y2="1394.192"/>
<line x1="1560.000" y1="800.000" x2="630.884" y2="1540.945"/>
<line x1="1560.000" y1="800.000" x2="115.264" y2="1129.752"/>
<line x1="1560.000" y1="800.000" x2="115.264" y2="470.248"/>
<line x1="1560.000" y1="800.000" x2="630.884" y2="59.055"/>
<line x1="1560.000" y1="800.000" x2="1273.852" y2="205.808"/>
<line x1="1560.000" y1="800.000" x2="800.000" y2="800.000"/>
<line x1="1273.852" y1="1394.192" x2="630.884" y2="1540.945"/>
<line x1="1273.852" y1="1394.192" x2="115.264" y2="1129.752"/>
<line x1="1273.852" y1="1394.192" x2="115.264" y2="470.248"/>
<line x1="1273.852" y1="1394.192" x2="630.884" y2="59.055"/>
<line x1="1273.852" y1="1394.192" x2="1273.852" y2="205.808"/>
<line x1="1273.852" y1="1394.192" x2="800.000" y2="800.000"/>
<line x1="630.884" y1="1540.945" x2="115.264" y2="1129.752"/>
<line x1="630.884" y1="1540.945" x2="115.264" y2="470.248"/>
<line x1="630.884" y1="1540.945" x2="630.884" y2="59.055"/>
<line x1="630.884" y1="1540.945" x2="1273.852" y2="205.808"/>
<line x1="630.884" y1="1540.945" x2="800.000" y2="800.000"/>
<line x1="115.264" y1="1129.752" x2="115.264" y2="470.248"/>
<line x1="115.264" y1="1129.752" x2="630.884" y2="59.055"/>
<line x1="115.264" y1="1129.752" x2="1273.852" y2="205.808"/>
<line x1="115.264" y1="1129.752" x2="800.000" y2="800.000"/>
<line x1="115.264" y1="470.248" x2="630.884" y2="59.055"/>
<line x1="115.264" y1="470.248" x2="1273.852" y2="205.808"/>
<line x1="115.264" y1="470.248" x2="800.000" y2="800.000"/>
<line x1="630.884" y1="59.055" x2="1273.852" y2="205.808"/>
<line x1="630.884" y1="59.055" x2="800.000" y2="800.000"/>
<line x1="1273.852" y1="205.808" x2="800.000" y2="800.000"/>
</g>
</svg>
